<svg xmlns="http://www.w3.org/2000/svg" viewBox="0 0 490 490"><defs><style>.cls-1{fill:#fff;stroke:#000;stroke-miterlimit:10;stroke-width:10px;}</style></defs><title>Asset 61</title><g id="Layer_2" data-name="Layer 2"><g id="Layer_1-2" data-name="Layer 1"><circle class="cls-1" cx="245" cy="245" r="240"/><path d="M93.08,288.26c-10.8,0-17.56-5.45-17.56-17.78V220c0-12.11,6.76-18.22,17.35-18.22,9.6,0,16.58,3.38,16.58,18.44a87.14,87.14,0,0,1-.87,11.45l-11-.87a62.72,62.72,0,0,0,.76-8.95c0-7.85-1.85-8.94-4.47-8.94S90,214,90,218.21v53.47c0,3.82,1,5.56,4.25,5.56,2.4,0,4-1.64,4-9.6a70.32,70.32,0,0,0-.76-8.95l11.13-.87a78.1,78.1,0,0,1,.87,11.57C109.56,284.77,102.58,288.26,93.08,288.26Z"/><path d="M158.11,287H143.49l-1.09-11.67h-8.62L132.68,287H120.57l10.8-83.79H147ZM141,263.6l-2.62-33.38L135,263.6Z"/><path d="M204.58,270.69c0,11.68-7.2,17.57-17.89,17.57-11,0-17.79-5.89-17.79-17.46V203.16h14.41v69.06c0,3.17,1.63,4.8,4.14,4.8,2.29,0,3.28-1.63,3.28-4.91v-69h13.85Z"/><path d="M255.53,269.39c0,13.31-6.76,17.56-18.22,17.56H219.2V203.16H237c12.11,0,18.55,4.58,18.55,19ZM241,220.61c0-4.8-1.42-5.89-4.47-5.89h-2.84v60.67h2.62c3.49,0,4.69-1.42,4.69-5.35Z"/><path d="M304.84,287H290.22l-1.09-11.67h-8.62L279.42,287H267.31l10.8-83.79h15.6ZM287.71,263.6l-2.62-33.38-3.38,33.38Z"/><path d="M347.06,287.17H317.6v-84h14.51v72.12h14.95Z"/><path d="M414.48,240.8H381.64V230h32.84Zm0,16.91H381.64v-10.8h32.84Z"/></g></g></svg>